<?xml version="1.0" encoding="UTF-8" standalone="no"?>
<!-- Created with Inkscape (http://www.inkscape.org/) -->

<svg
   xmlns:dc="http://purl.org/dc/elements/1.1/"
   xmlns:cc="http://creativecommons.org/ns#"
   xmlns:rdf="http://www.w3.org/1999/02/22-rdf-syntax-ns#"
   xmlns:svg="http://www.w3.org/2000/svg"
   xmlns="http://www.w3.org/2000/svg"
   xmlns:sodipodi="http://sodipodi.sourceforge.net/DTD/sodipodi-0.dtd"
   xmlns:inkscape="http://www.inkscape.org/namespaces/inkscape"
   version="1.1"
   id="svg2"
   xml:space="preserve"
   width="10mm"
   height="10mm"
   viewBox="0 0 37.795274 37.795274"
   sodipodi:docname="key+.svg"
   inkscape:version="0.92.2 5c3e80d, 2017-08-06"
   inkscape:export-filename="/home/user/art/vec-sketing/key+_logo/keyplus-grey.png"
   inkscape:export-xdpi="96"
   inkscape:export-ydpi="96"><metadata
     id="metadata8"><rdf:RDF><cc:Work
         rdf:about=""><dc:format>image/svg+xml</dc:format><dc:type
           rdf:resource="http://purl.org/dc/dcmitype/StillImage" /><dc:title /></cc:Work></rdf:RDF></metadata><defs
     id="defs6"><clipPath
       clipPathUnits="userSpaceOnUse"
       id="clipPath20"><path
         d="M 20,120 H 340 V 230 H 20 Z"
         id="path18"
         inkscape:connector-curvature="0" /></clipPath></defs><sodipodi:namedview
     pagecolor="#ffffff"
     bordercolor="#666666"
     borderopacity="1"
     objecttolerance="10"
     gridtolerance="10"
     guidetolerance="10"
     inkscape:pageopacity="0"
     inkscape:pageshadow="2"
     inkscape:window-width="1920"
     inkscape:window-height="1053"
     id="namedview4"
     showgrid="false"
     inkscape:snap-bbox="true"
     inkscape:snap-page="true"
     inkscape:snap-object-midpoints="true"
     inkscape:snap-center="true"
     inkscape:zoom="11.313709"
     inkscape:cx="-20.25173"
     inkscape:cy="14.551351"
     inkscape:window-x="0"
     inkscape:window-y="27"
     inkscape:window-maximized="1"
     inkscape:current-layer="g16"
     units="mm"
     inkscape:snap-midpoints="true" /><g
     id="g10"
     inkscape:groupmode="layer"
     inkscape:label="SilkS"
     transform="matrix(1.3333333,0,0,-1.3333333,0,37.795197)"><g
       id="g12"
       transform="matrix(0.08701332,0,0,0.08701332,-1.4891685,-1.0541626)"
       style="stroke-width:1.14924908"><g
         id="g14"
         style="stroke-width:1.14924908"><g
           id="g16"
           clip-path="url(#clipPath20)"
           style="stroke-width:1.14924908"><path
             d="m 219.379,176.09322 v -0.58107 m 3.0124,0.77841 c 0,2.582 2.01865,5.35044 4.59665,5.35044 2.582,0 4.653,-2.47503 4.653,-5.05703 l 11.90995,-0.0619 V 188.672 h 23.789 v 23.789 h 23.398 v -23.789 h 23.793 V 165.309 H 290.738 V 141.52 H 267.34 v 23.789 h -23.789 v 11.21303 l -11.91955,0.16559 c -0.15629,-2.43654 -2.19997,-4.34762 -4.6434,-4.34762 -2.34082,0 -4.26281,1.70663 -4.59665,3.95056 l -3.0124,-0.77841 V 132.109 H 338.75 v 89.7695 H 219.379 v -46.36635"
             style="fill:#000000;fill-opacity:1;fill-rule:nonzero;stroke:none;stroke-width:1.14924908"
             id="path22"
             inkscape:connector-curvature="0"
             sodipodi:nodetypes="cccsccccccccccccccccsccccccc" /><path
             d="M 0.81040137,-7.3313054 H 2.497167 v 3.9907556 L 4.438361,-5.2770322 H 6.3984015 L 3.8211367,-2.8552513 6.6010019,0 h -2.04485 L 2.497167,-2.200334 V 0 H 0.81040137 Z"
             style="font-variant:normal;font-weight:bold;font-size:medium;font-family:'DejaVu Sans';-inkscape-font-specification:DejaVuSans-Bold;writing-mode:lr-tb;fill:#000000;fill-opacity:1;fill-rule:nonzero;stroke:none;stroke-width:1.14924908"
             id="path821"
             inkscape:connector-curvature="0"
             transform="matrix(10,0,0,-10,15.3477,146.5)" /><path
             d="m 12.244036,-2.652651 v 0.4805869 H 8.3003972 q 0.061251,0.5936661 0.4287588,0.8904991 0.3675076,0.2968331 1.0271367,0.2968331 0.5324153,0 1.0883883,-0.155484 0.560684,-0.1601956 1.149639,-0.4805868 v 1.30041146 q -0.598378,0.22615852 -1.196756,0.33923778 -0.598378,0.1177909 -1.1967553,0.1177909 -1.4323373,0 -2.2286038,-0.72559192 Q 6.5806501,-1.319258 6.5806501,-2.6338045 q 0,-1.2909882 0.7774199,-2.030715 0.7821315,-0.7397269 2.148506,-0.7397269 1.243872,0 1.98831,0.7491502 0.74915,0.7491501 0.74915,2.0024452 z m -1.733882,-0.5606847 q 0,-0.4805868 -0.282698,-0.7727083 -0.2779863,-0.296833 -0.7303033,-0.296833 -0.4900102,0 -0.7962665,0.2779865 -0.3062563,0.2732749 -0.3816425,0.7915548 z"
             style="font-variant:normal;font-weight:bold;font-size:medium;font-family:'DejaVu Sans';-inkscape-font-specification:DejaVuSans-Bold;writing-mode:lr-tb;fill:#000000;fill-opacity:1;fill-rule:nonzero;stroke:none;stroke-width:1.14924908"
             id="path823"
             inkscape:connector-curvature="0"
             transform="matrix(10,0,0,-10,15.3477,146.5)" /><path
             d="m 12.826131,-5.2770322 h 1.686765 l 1.418203,3.5808433 1.206178,-3.5808433 h 1.686766 l -2.21918,5.7764656 q -0.334527,0.8810759 -0.782132,1.229737 -0.442894,0.3533727 -1.173197,0.3533727 H 13.674225 V 0.97530863 h 0.527703 q 0.428759,0 0.621936,-0.13663744 0.197889,-0.13663744 0.306257,-0.49001014 l 0.04712,-0.14606071 z"
             style="font-variant:normal;font-weight:bold;font-size:medium;font-family:'DejaVu Sans';-inkscape-font-specification:DejaVuSans-Bold;writing-mode:lr-tb;fill:#000000;fill-opacity:1;fill-rule:nonzero;stroke:none;stroke-width:1.14924908"
             id="path825"
             inkscape:connector-curvature="0"
             transform="matrix(10,0,0,-10,15.3477,146.5)" /></g></g></g></g></svg>